# xmcd CD database file
#
# Track frame offsets:
#	150
#	13255
#	33388
#	46863
#	61570
#	75690
#	87245
#	100122
#	114065
#	127804
#	141759
#	154658
#	168654
#	182140
#	195452
#	209117
#	222059
#	233074
#	247398
#	261912
#
# Disc length: 3648 seconds
#
# Revision: 0
# Processed by: cddbd v1.5.2PL0 Copyright (c) Steve Scherf et al.
# Submitted via: CDex 1.70beta2
#
DISCID=0f0e3e14
DTITLE=Ella Fitzgerald  - Jazz passion
DYEAR=2002
DGENRE=Jazz
TTITLE0=Just a simple melody
TTITLE1=I want to be happy
TTITLE2=My man
TTITLE3=Undecided
TTITLE4=My heart belongs to daddy
TTITLE5=It's only a papermoon
TTITLE6=You won't be satisfied
TTITLE7=Oh! Lady be good
TTITLE8=Black coffee
TTITLE9=Basin street blues
TTITLE10=Mr. Paganini
TTITLE11=Rock it for me
TTITLE12=Bei mir bist du schoen
TTITLE13=I got it bad
TTITLE14='Tain't what you do
TTITLE15=Cow cow boogie
TTITLE16=Flying home
TTITLE17=The frim fram sauce
TTITLE18=How high the moon
TTITLE19=In the evening
EXTD=YEAR: 2002
EXTT0=
EXTT1=
EXTT2=
EXTT3=
EXTT4=
EXTT5=
EXTT6=
EXTT7=
EXTT8=
EXTT9=
EXTT10=
EXTT11=
EXTT12=
EXTT13=
EXTT14=
EXTT15=
EXTT16=
EXTT17=
EXTT18=
EXTT19=
PLAYORDER=
